<svg width="171" height="40" viewBox="0 0 171 40" fill="none" xmlns="http://www.w3.org/2000/svg">
<rect width="39.1184" height="39.1184" rx="6.51973" fill="#5D5FEF"/>
<rect x="18.3906" y="10.3242" width="1.74636" height="9.31389" fill="white"/>
<rect x="18.3438" y="8.93359" width="1.74636" height="15.4462" transform="rotate(51.8154 18.3438 8.93359)" fill="white"/>
<rect x="18.6953" y="19.9531" width="1.74636" height="12.9765" transform="rotate(33.096 18.6953 19.9531)" fill="white"/>
<rect x="6.53125" y="19.9141" width="1.74636" height="12.9765" transform="rotate(-24.7049 6.53125 19.9141)" fill="white"/>
<rect x="31.0156" y="19.1367" width="1.74636" height="12.2284" transform="rotate(27.4657 31.0156 19.1367)" fill="white"/>
<rect x="6.10938" y="20.6836" width="1.74636" height="22.5935" transform="rotate(-62.2575 6.10938 20.6836)" fill="white"/>
<rect x="32.0703" y="19.5781" width="1.74636" height="22.7771" transform="rotate(62.9104 32.0703 19.5781)" fill="white"/>
<circle cx="19.5628" cy="9.1566" r="2.32847" fill="white"/>
<circle cx="19.5628" cy="19.6371" r="2.32847" fill="white"/>
<circle cx="7.92222" cy="19.6371" r="2.32847" fill="white"/>
<circle cx="12.5785" cy="30.1136" r="2.32847" fill="white"/>
<circle cx="31.2035" cy="19.6371" r="2.32847" fill="white"/>
<circle cx="26.5472" cy="30.1136" r="2.32847" fill="white"/>
<path d="M53.6728 27.1876C52.6905 27.1876 51.8025 27.0194 51.0086 26.683C50.2282 26.3466 49.6092 25.8622 49.1517 25.2298C48.6942 24.5974 48.4588 23.8506 48.4453 22.9895H51.4728C51.5132 23.5681 51.715 24.0255 52.0783 24.3619C52.455 24.6983 52.9664 24.8665 53.6122 24.8665C54.2715 24.8665 54.7896 24.7118 55.1663 24.4023C55.5431 24.0794 55.7315 23.6622 55.7315 23.1509C55.7315 22.7338 55.6036 22.3907 55.348 22.1216C55.0923 21.8525 54.7694 21.6439 54.3792 21.4959C54.0024 21.3344 53.4777 21.1595 52.8049 20.9711C51.8899 20.702 51.1431 20.4397 50.5646 20.184C49.9994 19.9149 49.5083 19.518 49.0912 18.9932C48.6875 18.455 48.4857 17.7418 48.4857 16.8538C48.4857 16.0195 48.6942 15.2929 49.1114 14.674C49.5285 14.055 50.1138 13.5841 50.8673 13.2612C51.6208 12.9248 52.482 12.7566 53.4508 12.7566C54.9039 12.7566 56.0813 13.1132 56.9828 13.8263C57.8978 14.526 58.4024 15.5082 58.4966 16.773H55.3883C55.3614 16.2886 55.1529 15.8917 54.7627 15.5822C54.3859 15.2593 53.8813 15.0978 53.2489 15.0978C52.6972 15.0978 52.2532 15.2391 51.9168 15.5217C51.5939 15.8042 51.4324 16.2146 51.4324 16.7529C51.4324 17.1296 51.5535 17.4458 51.7957 17.7015C52.0514 17.9437 52.3609 18.1455 52.7242 18.307C53.1009 18.455 53.6257 18.6299 54.2984 18.8317C55.2134 19.1008 55.9602 19.3699 56.5388 19.6391C57.1174 19.9082 57.6152 20.3118 58.0323 20.85C58.4495 21.3883 58.658 22.0947 58.658 22.9693C58.658 23.7228 58.4629 24.4225 58.0727 25.0683C57.6825 25.7142 57.1106 26.2322 56.3571 26.6224C55.6036 26.9992 54.7088 27.1876 53.6728 27.1876Z" fill="#111D31"/>
<path d="M72.2691 15.8648V27.0463H69.4232V25.6335C69.0599 26.1179 68.5823 26.5013 67.9902 26.7839C67.4116 27.053 66.7792 27.1876 66.093 27.1876C65.2184 27.1876 64.4447 27.0059 63.7719 26.6426C63.0992 26.2659 62.5677 25.7209 62.1775 25.0078C61.8007 24.2812 61.6123 23.42 61.6123 22.4243V15.8648H64.438V22.0207C64.438 22.9087 64.66 23.595 65.104 24.0794C65.5481 24.5503 66.1536 24.7858 66.9205 24.7858C67.7009 24.7858 68.3132 24.5503 68.7572 24.0794C69.2012 23.595 69.4232 22.9087 69.4232 22.0207V15.8648H72.2691Z" fill="#111D31"/>
<path d="M78.4882 17.4795C78.8515 16.9681 79.3493 16.5443 79.9817 16.2079C80.6276 15.8581 81.3609 15.6831 82.1817 15.6831C83.1371 15.6831 83.9982 15.9186 84.7652 16.3896C85.5456 16.8605 86.1578 17.5333 86.6018 18.4079C87.0593 19.269 87.2881 20.2715 87.2881 21.4152C87.2881 22.5589 87.0593 23.5748 86.6018 24.4628C86.1578 25.3375 85.5456 26.017 84.7652 26.5013C83.9982 26.9857 83.1371 27.2279 82.1817 27.2279C81.3609 27.2279 80.6343 27.0598 80.0019 26.7234C79.383 26.387 78.8784 25.9631 78.4882 25.4518V32.3747H75.6625V15.8648H78.4882V17.4795ZM84.4019 21.4152C84.4019 20.7424 84.2606 20.1638 83.978 19.6794C83.7089 19.1816 83.3456 18.8048 82.8881 18.5492C82.4441 18.2935 81.9597 18.1657 81.4349 18.1657C80.9236 18.1657 80.4392 18.3002 79.9817 18.5693C79.5377 18.825 79.1744 19.2018 78.8919 19.6794C78.6227 20.1975 78.4882 20.7828 78.4882 21.4555C78.4882 22.1283 78.6227 22.7136 78.8919 23.2115C79.1744 23.7093 79.5377 24.0928 79.9817 24.3619C80.4392 24.6176 80.9236 24.7454 81.4349 24.7454C81.9597 24.7454 82.4441 24.6109 82.8881 24.3417C83.3456 24.0726 83.7089 23.6892 83.978 23.1913C84.2606 22.6934 84.4019 22.1014 84.4019 21.4152Z" fill="#111D31"/>
<path d="M92.7725 17.4795C93.1358 16.9681 93.6337 16.5443 94.2661 16.2079C94.912 15.8581 95.6453 15.6831 96.4661 15.6831C97.4214 15.6831 98.2826 15.9186 99.0495 16.3896C99.8299 16.8605 100.442 17.5333 100.886 18.4079C101.344 19.269 101.572 20.2715 101.572 21.4152C101.572 22.5589 101.344 23.5748 100.886 24.4628C100.442 25.3375 99.8299 26.017 99.0495 26.5013C98.2826 26.9857 97.4214 27.2279 96.4661 27.2279C95.6453 27.2279 94.9187 27.0598 94.2863 26.7234C93.6673 26.387 93.1628 25.9631 92.7725 25.4518V32.3747H89.9469V15.8648H92.7725V17.4795ZM98.6862 21.4152C98.6862 20.7424 98.5449 20.1638 98.2624 19.6794C97.9933 19.1816 97.63 18.8048 97.1725 18.5492C96.7285 18.2935 96.2441 18.1657 95.7193 18.1657C95.208 18.1657 94.7236 18.3002 94.2661 18.5693C93.8221 18.825 93.4588 19.2018 93.1762 19.6996C92.9071 20.1975 92.7725 20.7828 92.7725 21.4555C92.7725 22.1283 92.9071 22.7136 93.1762 23.2115C93.4588 23.7093 93.8221 24.0928 94.2661 24.3619C94.7236 24.6176 95.208 24.7454 95.7193 24.7454C96.2441 24.7454 96.7285 24.6109 97.1725 24.3417C97.63 24.0726 97.9933 23.6892 98.2624 23.1913C98.5449 22.6934 98.6862 22.1014 98.6862 21.4152Z" fill="#111D31"/>
<path d="M107.057 12.1107V27.0463H104.231V12.1107H107.057Z" fill="#111D31"/>
<path d="M121.151 15.8648L114.228 32.3343H111.221L113.643 26.7637L109.162 15.8648H112.331L115.217 23.6757L118.144 15.8648H121.151Z" fill="#111D31"/>
<path d="M137.166 15.7033C138.538 15.7033 139.642 16.1272 140.476 16.9749C141.324 17.8091 141.748 18.9797 141.748 20.4868V27.0463H138.922V20.8702C138.922 19.9956 138.7 19.3296 138.256 18.8721C137.812 18.4012 137.206 18.1657 136.439 18.1657C135.672 18.1657 135.06 18.4012 134.603 18.8721C134.159 19.3296 133.937 19.9956 133.937 20.8702V27.0463H131.111V20.8702C131.111 19.9956 130.889 19.3296 130.445 18.8721C130.001 18.4012 129.395 18.1657 128.628 18.1657C127.848 18.1657 127.229 18.4012 126.772 18.8721C126.328 19.3296 126.106 19.9956 126.106 20.8702V27.0463H123.28V15.8648H126.106V17.2171C126.469 16.7461 126.933 16.3761 127.498 16.107C128.077 15.8379 128.709 15.7033 129.395 15.7033C130.27 15.7033 131.05 15.8917 131.737 16.2685C132.423 16.6318 132.954 17.1565 133.331 17.8428C133.694 17.1969 134.219 16.6789 134.905 16.2886C135.605 15.8984 136.359 15.7033 137.166 15.7033Z" fill="#111D31"/>
<path d="M146.467 14.5327C145.97 14.5327 145.552 14.378 145.216 14.0685C144.893 13.7456 144.732 13.3486 144.732 12.8777C144.732 12.4067 144.893 12.0165 145.216 11.7071C145.552 11.3841 145.97 11.2227 146.467 11.2227C146.965 11.2227 147.376 11.3841 147.699 11.7071C148.035 12.0165 148.203 12.4067 148.203 12.8777C148.203 13.3486 148.035 13.7456 147.699 14.0685C147.376 14.378 146.965 14.5327 146.467 14.5327ZM147.86 15.8648V27.0463H145.034V15.8648H147.86Z" fill="#111D31"/>
<path d="M157.454 15.7033C158.786 15.7033 159.862 16.1272 160.683 16.9749C161.504 17.8091 161.914 18.9797 161.914 20.4868V27.0463H159.088V20.8702C159.088 19.9822 158.866 19.3027 158.422 18.8317C157.978 18.3473 157.373 18.1051 156.606 18.1051C155.825 18.1051 155.207 18.3473 154.749 18.8317C154.305 19.3027 154.083 19.9822 154.083 20.8702V27.0463H151.257V15.8648H154.083V17.2574C154.46 16.773 154.937 16.3963 155.516 16.1272C156.108 15.8446 156.754 15.7033 157.454 15.7033Z" fill="#111D31"/>
<path d="M168.496 18.1859V23.595C168.496 23.9717 168.584 24.2476 168.759 24.4225C168.947 24.5839 169.257 24.6647 169.687 24.6647H170.999V27.0463H169.223C166.841 27.0463 165.651 25.8891 165.651 23.5748V18.1859H164.319V15.8648H165.651V13.0997H168.496V15.8648H170.999V18.1859H168.496Z" fill="#111D31"/>
</svg>
