<svg width="198" height="274" viewBox="0 0 198 274" fill="none" xmlns="http://www.w3.org/2000/svg">
<path d="M177.13 210.234L149.556 189.192L102.874 185.651L0 245.046L49.813 273.803L53.6996 271.561H93.856L96.189 250.55L144.986 222.378H179.042L177.13 210.234Z" fill="#ECECEC"/>
<path d="M37.5117 135.63L38.8338 136.282L40.5896 135.261L39.2675 134.609L37.5117 135.63Z" fill="#373737"/>
<path d="M52.9506 158.748L52.9453 160.267L54.7037 159.245L54.709 157.726L52.9506 158.748Z" fill="#373737"/>
<path d="M46.7023 153.1C46.2341 152.829 45.7818 152.446 45.3801 151.986C44.9119 151.451 44.5075 150.818 44.2096 150.145C44.042 149.767 43.909 149.379 43.8185 148.988L40.5943 135.261L38.8359 136.282L42.0575 150.009C42.1479 150.4 42.281 150.789 42.4485 151.166C42.7465 151.839 43.1508 152.472 43.619 153.007C44.0207 153.465 44.4703 153.85 44.9411 154.122L52.9512 158.745L54.7095 157.724L46.7023 153.1Z" fill="#2D2A29"/>
<path d="M44.9391 154.121C43.617 153.358 42.4491 151.695 42.0554 150.009L38.8338 136.282L37.5117 135.627L41.2413 151.097C41.651 152.773 42.8109 154.414 44.1251 155.172L52.9464 160.267L52.9517 158.748L44.9391 154.121Z" fill="#232120"/>
<path d="M63.418 120.674L64.7401 121.329L66.4985 120.307L65.1763 119.653L63.418 120.674Z" fill="#373737"/>
<path d="M78.8542 143.792L78.8516 145.311L80.6073 144.289L80.6126 142.77L78.8542 143.792Z" fill="#373737"/>
<path d="M72.6059 138.147C72.1377 137.876 71.6855 137.493 71.2838 137.033C70.8156 136.498 70.4112 135.865 70.1132 135.192C69.9457 134.814 69.8126 134.426 69.7222 134.034L66.5006 120.308L64.7422 121.329L67.9637 135.056C68.0542 135.447 68.1872 135.835 68.3548 136.213C68.6527 136.886 69.0571 137.519 69.5253 138.054C69.927 138.512 70.3766 138.897 70.8475 139.169L78.8574 143.792L80.6159 142.771L72.6059 138.147Z" fill="#2D2A29"/>
<path d="M70.8453 139.168C69.5232 138.404 68.3553 136.742 67.9616 135.055L64.7401 121.328L63.418 120.674L67.1476 136.14C67.5572 137.816 68.7171 139.458 70.0313 140.216L78.8527 145.31L78.858 143.791L70.8453 139.168Z" fill="#232120"/>
<path d="M81.6418 139.233C81.2933 139.435 81.0432 139.807 80.9368 140.329L73.7356 176.673C73.6983 176.848 73.6131 176.973 73.4961 177.04L75.087 176.112C75.204 176.045 75.2891 175.92 75.3264 175.744L82.5277 139.4C82.6314 138.876 82.8841 138.506 83.2326 138.304L81.6418 139.233Z" fill="#2D2A29"/>
<path d="M114.399 159.258C114.005 156.713 112.218 153.991 110.161 152.805L83.5056 137.415C81.4572 136.234 79.6616 136.886 79.2546 138.969L72.0426 175.294C71.9416 175.786 72.2501 176.491 72.7183 176.861C72.7769 176.909 72.8354 176.952 72.8939 176.984C73.2956 177.215 73.6548 177.09 73.7426 176.672L80.9438 140.328C81.1938 139.088 82.2633 138.695 83.4976 139.408L110.153 154.797C111.388 155.51 112.465 157.143 112.694 158.67L119.677 203.192C119.765 203.716 120.121 204.254 120.52 204.485L120.698 204.562C121.167 204.73 121.467 204.379 121.379 203.777L114.399 159.258Z" fill="#232120"/>
<path d="M115.992 158.331C115.877 157.594 115.646 156.841 115.327 156.117C114.901 155.154 114.318 154.239 113.64 153.468C113.065 152.813 112.424 152.263 111.751 151.877L85.0957 136.488C83.9146 135.807 82.8159 135.735 82.0205 136.198L80.4297 137.126C81.2251 136.663 82.3237 136.735 83.5049 137.416L110.161 152.805C110.831 153.194 111.472 153.745 112.047 154.396C112.725 155.168 113.308 156.083 113.733 157.046C114.052 157.769 114.284 158.522 114.398 159.259L121.381 203.781C121.437 204.159 121.339 204.435 121.142 204.55L122.733 203.621C122.93 203.507 123.028 203.228 122.972 202.853L115.992 158.331Z" fill="#2D2A29"/>
<path d="M117.96 163.156C117.931 163.089 117.899 163.023 117.859 162.959L114.954 157.926C114.608 157.33 114.212 156.782 113.786 156.295C113.203 155.63 112.557 155.082 111.889 154.696L81.7993 137.322C81.5572 137.181 81.339 137.168 81.1847 137.258L40.4219 160.825C40.5762 160.735 40.7943 160.748 41.0364 160.889L71.1264 178.263C71.7941 178.649 72.4406 179.197 73.0231 179.862C73.4514 180.349 73.8451 180.9 74.191 181.493L77.096 186.526C77.1332 186.593 77.1678 186.656 77.1971 186.723C77.4258 187.239 77.3886 187.75 77.0933 187.92L117.856 164.356C118.154 164.183 118.189 163.669 117.96 163.156Z" fill="#473B37"/>
<path d="M77.0935 186.524L74.1884 181.49C73.3664 180.083 72.2784 178.929 71.1211 178.261L41.0311 160.887C40.5523 160.61 40.1719 160.826 40.1719 161.363C40.1692 161.914 40.547 162.565 41.0259 162.842L71.1159 180.216C71.8182 180.621 72.4832 181.325 72.9833 182.19L75.8884 187.223C76.056 187.511 76.266 187.723 76.4868 187.851C76.7076 187.979 76.9205 188.011 77.0881 187.918C77.4259 187.726 77.426 187.101 77.0935 186.524Z" fill="#23201E"/>
<path d="M38.9582 163.878C38.6097 164.08 38.3596 164.452 38.2532 164.974L31.0519 201.318C31.0147 201.493 30.9296 201.619 30.8125 201.685L32.4033 200.757C32.5204 200.69 32.6055 200.565 32.6428 200.389L39.844 164.045C39.9477 163.521 40.2005 163.151 40.549 162.949L38.9582 163.878Z" fill="#1D1B1A"/>
<path d="M71.7154 183.906C71.3217 181.36 69.534 178.638 67.4777 177.449L40.8221 162.06C38.7737 160.879 36.978 161.53 36.571 163.613L29.359 199.939C29.258 200.431 29.5666 201.136 30.0348 201.506C30.0933 201.554 30.1518 201.596 30.2103 201.628C30.612 201.86 30.9712 201.734 31.059 201.317L38.2602 164.973C38.5103 163.733 39.5797 163.339 40.814 164.052L67.4697 179.442C68.7041 180.155 69.7814 181.788 70.0102 183.315L76.9934 227.837C77.0811 228.361 77.4349 228.898 77.8366 229.13L78.0149 229.207C78.4831 229.374 78.7837 229.023 78.6959 228.422L71.7154 183.906Z" fill="#232120"/>
<path d="M73.3043 182.978C73.1899 182.241 72.9585 181.488 72.6393 180.764C72.2136 179.801 71.631 178.886 70.9527 178.115C70.378 177.46 69.737 176.91 69.0639 176.524L42.4082 161.134C41.2271 160.453 40.1284 160.382 39.333 160.845L37.7422 161.773C38.5376 161.31 39.6363 161.382 40.8174 162.063L67.473 177.452C68.1434 177.841 68.7872 178.392 69.3619 179.043C70.0402 179.815 70.6228 180.73 71.0485 181.693C71.3677 182.419 71.5991 183.169 71.7135 183.906L78.6967 228.428C78.7525 228.806 78.654 229.082 78.4572 229.197L80.048 228.268C80.2449 228.154 80.3433 227.875 80.2875 227.5L73.3043 182.978Z" fill="#2D2A29"/>
<path d="M67.8429 92.3218C67.2976 92.1648 66.6778 92.2446 66.0633 92.601L29.6712 113.612C28.1602 114.484 27.2503 116.714 27.6547 118.6L33.869 147.575C34.1111 148.698 34.7602 149.44 35.5662 149.669L36.8032 150.02L69.0773 92.6729L67.8429 92.3218Z" fill="#2D2A29"/>
<path d="M76.9928 123.745L70.7785 94.7695C70.3741 92.8834 68.8259 92.0721 67.3015 92.9526L30.9094 113.963C29.3984 114.836 28.4886 117.065 28.893 118.951L35.1099 147.926C35.5143 149.813 37.0732 150.619 38.5869 149.743L74.979 128.733C76.498 127.855 77.3972 125.631 76.9928 123.745Z" fill="#473B37"/>
<path d="M77.5117 83.1616L78.2991 102.015C78.2991 102.015 86.9183 112.661 94.0424 114.63C99.1794 116.05 94.8379 102.103 87.2588 92.3289C84.3273 88.5486 81.1829 83.7708 77.5117 83.1616Z" fill="url(#paint0_linear_6530_85720)"/>
<path d="M94.1055 89.9217C93.4138 87.4318 85.1936 89.2008 85.7496 91.6243C85.8986 92.2734 88.5402 106.66 89.176 108.708C91.4425 116.011 97.9549 116.482 98.9445 111.084C99.3515 108.844 95.0845 93.4519 94.1055 89.9217Z" fill="#2969FF"/>
<path d="M86.0762 91.3208C86.4167 92.7307 93.9825 91.2037 93.61 89.5677C93.5196 89.166 93.4052 88.8335 93.3333 88.5701C92.7135 86.3355 85.3367 87.9236 85.8368 90.097C85.8661 90.2141 85.9033 90.403 86.0762 91.3208Z" fill="#EFEFEF"/>
<path d="M85.8142 88.4555C85.9925 88.8412 86.5405 89.6659 86.5564 89.8042C86.7187 91.2035 93.223 90.5756 92.6191 88.0245C92.2812 86.5959 92.0604 85.8271 91.9301 84.3666C91.829 83.2201 91.6854 82.0656 91.2837 80.9882C90.882 79.9108 90.1238 78.2189 89.4933 78.0991C88.8815 77.9821 88.0409 77.7613 87.7057 77.2345C87.4982 76.9073 87.4396 76.5109 87.3199 76.1438C87.2002 75.7767 86.9768 75.3963 86.607 75.2873C86.1388 75.1489 85.6546 75.5028 85.4072 75.9231C85.1571 76.3434 85.0534 76.8356 84.8007 77.2532C84.1383 77.0963 83.9467 76.2795 83.6514 75.6677C83.4679 75.2899 83.271 72.3158 81.736 72.4914C80.2942 72.659 82.0766 76.9074 82.2761 77.6416C82.4995 78.4743 83.2604 82.6721 81.5233 82.4566C81.4168 82.4433 81.3131 82.4087 81.2093 82.3741C80.9193 82.2757 80.6294 82.18 80.3367 82.0816C79.8153 81.906 78.4002 81.2595 78.0064 81.6453C77.7191 81.9273 77.7085 82.4087 77.892 82.7705C78.613 84.1778 81.9648 84.8322 82.3665 85.045C83.4785 85.6356 85.652 88.107 85.8142 88.4555Z" fill="#FCBE9F"/>
<path d="M91.1812 82.3255C91.0828 82.1446 90.979 82.009 90.8593 81.9025L82.006 74.0335C81.9289 73.9617 81.8491 73.9085 81.772 73.8712C81.6203 73.7994 81.474 73.7914 81.3463 73.8367L80.793 74.0362L88.6407 89.5215L89.1967 89.322C89.3536 89.2661 89.4814 89.1251 89.5505 88.9096L91.3169 83.4242C91.418 83.097 91.3594 82.674 91.1812 82.3255Z" fill="#3D3D3D"/>
<path d="M90.3061 82.1028L81.4528 74.2337C81.3757 74.1619 81.2958 74.1087 81.2187 74.0715C80.8862 73.9145 80.5643 74.0608 80.4392 74.4412L78.6728 79.9266C78.5185 80.4108 78.7208 81.0918 79.1278 81.4642L87.9811 89.3333C88.0556 89.3998 88.1327 89.4503 88.2072 89.4876C88.5424 89.6472 88.8669 89.5088 88.9946 89.1124L90.761 83.6271C90.9153 83.1429 90.7131 82.4619 90.3061 82.1028Z" fill="#232323"/>
<path d="M84.5626 78.2078C84.4429 79.7135 85.7118 79.5406 86.1321 78.9474C87.9837 76.3377 87.0924 74.9091 85.9991 75.38C84.9137 75.8455 84.6451 77.1543 84.5626 78.2078Z" fill="#FCBE9F"/>
<path d="M88.4787 80.358C89.7423 80.1638 90.003 79.5652 90.0403 79.2087C90.1068 78.6128 89.7929 78.0196 89.1172 78.0329C87.3854 78.0649 86.7495 80.624 88.4787 80.358Z" fill="#FCBE9F"/>
<path d="M84.0847 222.114C86.8008 223.899 92.8555 223.987 93.9994 220.435C94.5314 218.783 91.004 208.589 90.4826 205.591C90.3336 204.734 90.0728 203.229 90.0728 203.229C89.8068 202.963 88.889 202.867 88.5299 202.753C87.0003 202.266 84.4757 203.242 82.8769 203.38C82.0629 203.45 82.132 208.954 82.1427 209.499C82.1985 212.838 81.9698 220.725 84.0847 222.114Z" fill="#8E5B1E"/>
<path d="M83.7878 220.335C86.5039 222.12 92.5586 222.207 93.7025 218.656C94.2345 217.004 90.9385 206.802 90.4171 203.804C90.2682 202.947 90.0075 201.442 90.0075 201.442C89.7415 201.176 88.5895 201.088 88.233 200.973C86.7034 200.487 84.1788 201.463 82.58 201.601C81.766 201.67 81.8352 207.174 81.8458 207.72C81.9017 211.058 81.6756 218.946 83.7878 220.335Z" fill="#3A302E"/>
<path d="M105.884 196.084C105.828 195.842 106.365 194.472 106.759 193.775L97.6902 190.705C96.98 193.158 94.8092 194.153 94.1867 196.3C93.5829 198.388 95.5035 199.952 105.118 207.034C110.047 210.662 112.159 211.303 114.131 210.83C115.317 210.545 116.551 209.811 116.586 207.789C116.644 204.155 106.307 197.898 105.884 196.084Z" fill="#3A302E"/>
<path d="M116.552 208.025C116.081 208.786 115.31 209.156 114.555 209.337C112.583 209.808 110.471 209.169 105.542 205.541C96.981 199.236 94.5814 197.595 94.5149 195.482C94.3792 195.74 93.9882 196.453 93.9031 196.749C93.5758 197.877 94.0999 198.558 96.0578 200.329C97.7258 201.84 100.735 203.881 105.161 207.14C110.091 210.768 112.147 211.308 114.118 210.837C115.259 210.561 116.427 209.861 116.552 208.025Z" fill="#8E5B1E"/>
<path d="M85.7955 139.102L82.6804 133.88L54.1094 139.818C55.6151 155.316 55.5406 158.277 57.5012 161.913C59.8794 166.324 76.7906 179.894 76.7906 181.613C77.0965 188.016 79.7169 193.621 81.0124 203.413C82.2893 207.67 90.7994 205.56 90.7994 202.615C90.7994 192.36 90.02 176.635 89.6582 174.946C89.3017 173.278 81.486 158.623 81.486 158.623C88.6101 163.842 103.88 171.118 103.88 171.118C100.461 175.638 100.206 182.163 96.9632 192.003C96.1625 194.767 105.239 198.901 106.436 196.095C107.748 193.022 114.218 178.825 118.304 167.061C119.466 163.717 117.277 161.663 115.545 160.222C110.054 155.659 93.4012 144.489 85.7955 139.102Z" fill="#191C26"/>
<path d="M48.4501 98.854C43.4196 103.805 51.8925 123.514 52.9619 130.49C54.308 139.279 52.8129 152.825 53.2146 155.4C53.8371 159.396 71.8123 164.272 80.1549 157.159L77.351 143.905C82.5066 150.678 86.1085 153.628 86.1085 153.628C88.5054 153.243 94.8021 146.51 94.2328 143.98C94.2328 143.98 86.3054 136.036 84.1506 133.881C82.9748 132.706 82.1846 116.124 83.661 103.071C84.9273 95.7123 83.0944 83.3395 78.008 83.8742C74.7838 84.212 55.545 91.8736 48.4501 98.854Z" fill="#2969FF"/>
<path d="M55.8975 96.3484C56.2193 94.582 57.0813 93.2519 58.4646 92.3926C63.4445 89.2934 66.9348 87.7399 69.7812 87.3515C69.9355 87.3302 70.0925 87.3195 70.2468 87.3222C71.6381 87.3328 73.0454 88.232 74.317 89.9186C75.7189 91.7781 76.5622 94.0979 76.7564 96.6277C77.5625 107.136 75.3039 115.143 73.2848 128.902C67.4083 121.238 54.163 105.861 55.8975 96.3484Z" fill="#94A2D6"/>
<path d="M73.2639 128.812C73.2639 128.812 72.7424 127.846 71.8805 126.306C67.6082 118.682 55.3019 95.8756 60.1994 92.8749C65.0437 89.906 67.3502 88.9856 69.9465 88.6345C72.1785 88.3312 73.474 93.657 73.8225 98.198C74.3812 105.463 73.3597 116.711 73.2639 128.812Z" fill="#EFEFEF"/>
<path d="M63.0313 98.532C64.1805 99.8648 65.7926 100.857 67.5457 101.011C69.2988 101.166 71.169 100.378 72.0761 98.8698C73.0285 97.2896 74.1591 90.381 73.9862 86.4678C73.9463 85.574 73.8478 84.6562 73.4275 83.8688C72.9008 82.8792 71.9298 82.2061 70.9429 81.6767C69.5409 80.9239 67.9821 80.3732 66.3939 80.4264C65.6809 80.4503 64.9121 80.6312 64.4679 81.1899C64.154 81.5862 64.0528 82.1077 63.9571 82.6051C63.3479 85.7469 62.4168 88.7769 61.3235 91.7829C60.4057 94.2995 61.2995 96.5235 63.0313 98.532Z" fill="#F3A984"/>
<path d="M73.4762 120.331L70.9516 101.887L69.3555 102.566L69.3608 121.831L73.282 128.902L73.4762 120.331Z" fill="#191C26"/>
<path d="M70.0827 104.293C71.8384 103.801 72.5593 100.234 71.9023 99.5792C71.5272 99.2068 69.814 99.3505 69.282 99.5899C67.8986 100.218 66.7521 101.069 66.9676 101.856C67.2176 102.769 69.0345 104.586 70.0827 104.293Z" fill="#191C26"/>
<path d="M69.942 99.3279L64.2038 104.244C64.2038 104.244 56.7711 95.3642 61.3148 91.7861C61.1073 95.0476 63.1424 97.2742 65.4435 98.3543C67.5557 99.3465 69.942 99.3279 69.942 99.3279Z" fill="white"/>
<path d="M69.7773 99.3547L74.8611 101.086C74.8611 101.086 74.5685 96.6439 72.2567 93.3984C73.233 98.8386 69.7773 99.3547 69.7773 99.3547Z" fill="white"/>
<path d="M60.4436 77.81C60.3185 87.0543 59.3449 83.4577 65.4395 92.3376C67.9534 95.998 72.4705 98.6955 74.2981 99.0094C75.3383 99.1877 76.5114 98.9376 77.1871 98.1262C77.9772 97.1818 78.7301 92.9334 79.2249 90.377C79.7915 87.448 79.999 84.5829 80.0974 81.6141C80.3289 74.5458 77.3095 71.5478 73.0584 69.8984C68.693 68.2065 60.5739 68.2624 60.4436 77.81Z" fill="#FCBE9F"/>
<path d="M66.4648 86.4502C68.1115 86.5752 67.6938 83.875 68.3349 82.9333C70.5216 79.725 77.1935 81.9251 79.9841 78.6344C81.6893 76.6232 80.5827 68.1955 71.3171 67.3017C66.7468 66.8601 63.0543 68.0573 60.8437 71.074C58.2685 74.5882 58.7288 79.3207 59.5881 83.9362C59.8807 85.5058 60.5484 87.0141 61.6764 88.1448C62.6261 89.0971 63.5784 89.693 64.1983 89.7622C62.7059 86.679 62.4664 86.506 62.0594 84.9578C61.6417 83.3616 62.8628 82.3214 63.762 82.7152C64.5414 83.0583 65.0123 83.7713 65.2836 84.5507C65.6028 85.4685 65.4432 86.373 66.4648 86.4502Z" fill="#D1A352"/>
<path d="M183.846 162.448L130.899 131.879L126.105 134.649L179.05 165.217L183.846 162.448Z" fill="#CFCBC7"/>
<path d="M179.05 222.378L126.105 191.81V134.649L179.05 165.218V222.378Z" fill="#DDDDDD"/>
<path d="M183.843 219.609L179.047 222.379V165.218L183.843 162.449V219.609Z" fill="#CFCBC7"/>
<path d="M98.652 211.63L45.7078 181.062L40.9141 183.831L93.8582 214.4L98.652 211.63Z" fill="#CFCBC7"/>
<path d="M93.8582 271.56L40.9141 240.992V183.831L93.8582 214.4V271.56Z" fill="#DDDDDD"/>
<path d="M98.6531 268.792L93.8594 271.561V214.401L98.6531 211.631V268.792Z" fill="#CFCBC7"/>
<path d="M92.5459 223.941L30.8203 188.304V184.45L92.5459 220.086V223.941Z" fill="url(#paint1_linear_6530_85720)"/>
<path d="M197.43 163.385L92.5469 223.94V220.085L197.43 159.533V163.385Z" fill="#CFCBC7"/>
<path d="M92.5459 220.085L30.8203 184.449L135.706 123.896L197.429 159.533L92.5459 220.085Z" fill="#473B37"/>
<path d="M64.4336 191.184L80.1823 182.091L102.108 194.749L86.362 203.841L64.4336 191.184Z" fill="#EAEAEA"/>
<path d="M65.7891 189.312L79.1834 179.039L103.956 189.805L90.5613 200.078L65.7891 189.312Z" fill="#F4F4F4"/>
<path d="M56 189.989L74.5073 182.838L91.7537 197.717L73.2464 204.868L56 189.989Z" fill="#F4F4F4"/>
<path d="M56.0312 188.112L72.3385 179.354L93.4555 192.464L77.1482 201.221L56.0312 188.112Z" fill="white"/>
<path d="M71.8477 176L88.155 167.242L109.272 180.352L92.9646 189.109L71.8477 176Z" fill="white"/>
<path d="M137.875 148.806L154.182 140.049L175.299 153.159L158.992 161.913L137.875 148.806Z" fill="#EAEAEA"/>
<path d="M125.445 150.807L141.191 141.714L163.117 154.374L147.371 163.467L125.445 150.807Z" fill="#EAEAEA"/>
<path d="M125.195 143.098L138.59 132.827L163.362 143.593L149.967 153.866L125.195 143.098Z" fill="#F4F4F4"/>
<path d="M114.668 143.998L133.175 136.847L150.422 151.726L131.914 158.877L114.668 143.998Z" fill="#F4F4F4"/>
<path d="M114.699 142.119L131.007 133.364L152.123 146.474L135.816 155.229L114.699 142.119Z" fill="white"/>
<path d="M94.7305 176.781L127.308 157.851V158.428L94.7305 177.361V176.781Z" fill="#C9C6C1"/>
<path d="M71.8789 162.948L104.456 144.015L127.273 157.191L94.6959 176.121L71.8789 162.948Z" fill="#ECE7E2"/>
<path opacity="0.2" d="M102.88 155.392L92.4255 161.428C92.1914 161.564 91.8083 161.564 91.5742 161.428L84.6443 157.427C84.4102 157.292 84.4102 157.071 84.6443 156.935L95.0991 150.899C95.3332 150.763 95.7162 150.763 95.9504 150.899L102.88 154.9C103.114 155.036 103.114 155.257 102.88 155.392Z" fill="#C9C6C1"/>
<path d="M84.6439 157.063L95.0986 151.027C95.3327 150.891 95.7158 150.891 95.9499 151.027L102.88 155.028C102.97 155.081 103.023 155.145 103.045 155.211C103.079 155.102 103.023 154.988 102.88 154.903L95.9499 150.902C95.7158 150.766 95.3327 150.766 95.0986 150.902L84.6439 156.938C84.4976 157.023 84.4443 157.137 84.4789 157.246C84.4975 157.177 84.5534 157.113 84.6439 157.063Z" fill="#C9C6C1"/>
<path d="M87.0836 168.126L85.6737 168.94C85.538 169.019 85.3146 169.019 85.1789 168.94L83.9924 168.256C83.8567 168.176 83.8567 168.048 83.9924 167.969L85.4023 167.155C85.5406 167.075 85.7614 167.075 85.8971 167.155L87.0836 167.838C87.222 167.918 87.222 168.046 87.0836 168.126ZM89.3581 166.524L88.1743 165.84C88.0387 165.761 87.8152 165.761 87.6795 165.84L86.2696 166.654C86.1313 166.734 86.1313 166.862 86.2696 166.942L87.4534 167.625C87.5891 167.705 87.8125 167.705 87.9482 167.625L89.3581 166.811C89.4964 166.732 89.4964 166.604 89.3581 166.524ZM91.6353 165.21L90.4515 164.526C90.3131 164.446 90.0923 164.446 89.9567 164.526L88.5467 165.34C88.4111 165.42 88.4111 165.548 88.5467 165.628L89.7306 166.311C89.8689 166.391 90.0897 166.391 90.2254 166.311L91.6353 165.497C91.771 165.417 91.771 165.29 91.6353 165.21ZM93.9098 163.896L92.726 163.212C92.5903 163.132 92.3669 163.132 92.2312 163.212L90.8213 164.026C90.6829 164.106 90.6829 164.234 90.8213 164.313L92.0051 164.997C92.1408 165.077 92.3642 165.077 92.4998 164.997L93.9098 164.183C94.0454 164.103 94.0454 163.976 93.9098 163.896ZM96.1843 162.584L94.9979 161.901C94.8622 161.821 94.6387 161.821 94.503 161.901L93.0931 162.715C92.9574 162.794 92.9574 162.922 93.0931 163.002L94.2795 163.686C94.4152 163.765 94.6387 163.765 94.7744 163.686L96.1843 162.872C96.3226 162.789 96.3226 162.661 96.1843 162.584ZM98.4615 161.27L97.2777 160.586C97.142 160.507 96.9185 160.507 96.7829 160.586L95.3729 161.4C95.2346 161.48 95.2346 161.608 95.3729 161.688L96.5568 162.371C96.6951 162.451 96.9159 162.451 97.0516 162.371L98.4615 161.557C98.5972 161.478 98.5972 161.347 98.4615 161.27ZM100.736 159.956L99.5521 159.272C99.4165 159.192 99.1931 159.192 99.0574 159.272L97.6475 160.086C97.5118 160.166 97.5118 160.294 97.6475 160.374L98.8339 161.057C98.9696 161.137 99.193 161.137 99.3287 161.057L100.739 160.243C100.874 160.163 100.874 160.036 100.736 159.956ZM103.01 158.642L101.827 157.958C101.691 157.878 101.468 157.878 101.332 157.958L99.9219 158.772C99.7863 158.852 99.7863 158.98 99.9219 159.059L101.106 159.743C101.241 159.823 101.465 159.823 101.601 159.743L103.01 158.929C103.149 158.849 103.149 158.722 103.01 158.642ZM105.288 157.328L104.104 156.644C103.965 156.564 103.745 156.564 103.609 156.644L102.199 157.458C102.061 157.538 102.061 157.665 102.199 157.745L103.383 158.429C103.521 158.509 103.742 158.509 103.878 158.429L105.288 157.615C105.423 157.535 105.423 157.407 105.288 157.328ZM108.296 155.59L107.11 154.907C106.972 154.827 106.751 154.827 106.615 154.907L104.471 156.144C104.335 156.224 104.335 156.351 104.471 156.431L105.655 157.115C105.793 157.195 106.014 157.195 106.15 157.115L108.294 155.878C108.432 155.798 108.432 155.67 108.296 155.59ZM116.841 157.862L115.655 157.179C115.519 157.099 115.295 157.099 115.16 157.179L113.75 157.993C113.614 158.072 113.614 158.2 113.75 158.28L114.936 158.964C115.072 159.043 115.296 159.043 115.431 158.964L116.841 158.15C116.979 158.07 116.979 157.942 116.841 157.862ZM119.118 156.548L117.932 155.864C117.793 155.785 117.573 155.785 117.437 155.864L116.027 156.679C115.891 156.758 115.891 156.886 116.027 156.966L117.213 157.649C117.349 157.729 117.573 157.729 117.708 157.649L119.118 156.835C119.254 156.756 119.254 156.628 119.118 156.548ZM121.393 155.234L120.209 154.55C120.071 154.471 119.85 154.471 119.714 154.55L118.304 155.364C118.169 155.444 118.169 155.572 118.304 155.652L119.488 156.335C119.626 156.415 119.847 156.415 119.983 156.335L121.393 155.521C121.531 155.442 121.531 155.314 121.393 155.234ZM118.921 159.065L117.735 158.381C117.599 158.301 117.376 158.301 117.24 158.381L115.83 159.195C115.695 159.275 115.695 159.403 115.83 159.482L117.017 160.166C117.152 160.246 117.376 160.246 117.511 160.166L118.921 159.352C119.06 159.27 119.06 159.142 118.921 159.065ZM121.199 157.751L120.012 157.067C119.876 156.987 119.653 156.987 119.517 157.067L118.107 157.881C117.969 157.961 117.969 158.088 118.107 158.168L119.291 158.852C119.429 158.932 119.65 158.932 119.786 158.852L121.196 158.038C121.334 157.958 121.334 157.828 121.199 157.751ZM123.473 156.436L122.289 155.753C122.154 155.673 121.93 155.673 121.794 155.753L120.385 156.567C120.249 156.647 120.249 156.774 120.385 156.854L121.571 157.538C121.707 157.618 121.93 157.618 122.066 157.538L123.476 156.724C123.611 156.644 123.611 156.516 123.473 156.436ZM89.9354 168.602L88.7516 167.918C88.6132 167.838 88.3924 167.838 88.2567 167.918L86.1126 169.155C85.9769 169.235 85.9769 169.363 86.1126 169.442L87.2991 170.126C87.4374 170.206 87.6582 170.206 87.7939 170.126L89.9381 168.889C90.0737 168.809 90.0737 168.682 89.9354 168.602ZM92.2126 167.29L91.0261 166.607C90.8904 166.527 90.6669 166.527 90.5313 166.607L89.1213 167.421C88.9857 167.5 88.9857 167.628 89.1213 167.708L90.3052 168.392C90.4435 168.471 90.6643 168.471 90.8 168.392L92.2099 167.577C92.3483 167.495 92.3483 167.367 92.2126 167.29ZM94.4871 165.976L93.3006 165.292C93.165 165.213 92.9415 165.213 92.8058 165.292L91.3959 166.106C91.2576 166.186 91.2576 166.314 91.3959 166.394L92.5796 167.077C92.7153 167.157 92.9388 167.157 93.0744 167.077L94.4844 166.263C94.6227 166.184 94.6227 166.053 94.4871 165.976ZM96.7616 164.662L95.5751 163.978C95.4394 163.898 95.2159 163.898 95.0803 163.978L93.6703 164.792C93.5347 164.872 93.5347 165 93.6703 165.08L94.8542 165.763C94.9925 165.843 95.2133 165.843 95.349 165.763L96.7589 164.949C96.8999 164.869 96.8999 164.742 96.7616 164.662ZM99.0387 163.348L97.8549 162.664C97.7166 162.584 97.4958 162.584 97.3602 162.664L95.9502 163.478C95.8146 163.558 95.8146 163.686 95.9502 163.765L97.1367 164.449C97.2723 164.529 97.4958 164.529 97.6315 164.449L99.0414 163.635C99.1744 163.555 99.1744 163.428 99.0387 163.348ZM101.313 162.034L100.127 161.35C99.9911 161.27 99.7676 161.27 99.6319 161.35L98.222 162.164C98.0863 162.244 98.0863 162.371 98.222 162.451L99.4058 163.135C99.5442 163.215 99.765 163.215 99.9007 163.135L101.311 162.321C101.452 162.241 101.452 162.113 101.313 162.034ZM103.588 160.719L102.404 160.036C102.268 159.956 102.045 159.956 101.909 160.036L100.499 160.85C100.361 160.93 100.361 161.057 100.499 161.137L101.683 161.821C101.819 161.901 102.042 161.901 102.178 161.821L103.588 161.007C103.726 160.927 103.726 160.799 103.588 160.719ZM105.865 159.408L104.681 158.724C104.543 158.644 104.322 158.644 104.186 158.724L102.776 159.538C102.641 159.618 102.641 159.746 102.776 159.826L103.963 160.509C104.099 160.589 104.322 160.589 104.458 160.509L105.868 159.695C106.001 159.613 106.001 159.485 105.865 159.408ZM108.139 158.094L106.953 157.41C106.817 157.33 106.594 157.33 106.458 157.41L105.048 158.224C104.913 158.304 104.913 158.432 105.048 158.511L106.235 159.195C106.37 159.275 106.594 159.275 106.729 159.195L108.139 158.381C108.275 158.301 108.275 158.171 108.139 158.094ZM110.414 156.78L109.23 156.096C109.092 156.016 108.871 156.016 108.735 156.096L107.325 156.91C107.19 156.99 107.19 157.117 107.325 157.197L108.512 157.881C108.648 157.961 108.871 157.961 109.007 157.881L110.417 157.067C110.552 156.987 110.552 156.859 110.414 156.78ZM91.2176 170.224L90.0339 169.541C89.8955 169.461 89.6747 169.461 89.539 169.541L88.1291 170.355C87.9934 170.435 87.9934 170.562 88.1291 170.642L89.3129 171.326C89.4512 171.406 89.672 171.406 89.8077 171.326L91.2176 170.512C91.3559 170.432 91.3559 170.304 91.2176 170.224ZM93.4948 168.91L92.3083 168.227C92.1726 168.147 91.9492 168.147 91.8135 168.227L90.4036 169.041C90.2679 169.12 90.2679 169.248 90.4036 169.328L91.5901 170.012C91.7284 170.091 91.9492 170.091 92.0849 170.012L93.4948 169.198C93.6305 169.118 93.6305 168.99 93.4948 168.91ZM95.7693 167.599L94.5828 166.915C94.4472 166.835 94.2237 166.835 94.088 166.915L92.6781 167.729C92.5398 167.809 92.5398 167.937 92.6781 168.016L93.8619 168.7C93.9976 168.78 94.2211 168.78 94.3568 168.7L95.7667 167.886C95.905 167.806 95.9049 167.676 95.7693 167.599ZM98.0438 166.285L96.8573 165.601C96.7216 165.521 96.4982 165.521 96.3626 165.601L94.9526 166.415C94.817 166.495 94.817 166.623 94.9526 166.702L96.1391 167.386C96.2747 167.466 96.4982 167.466 96.6339 167.386L98.0438 166.572C98.1821 166.492 98.1821 166.364 98.0438 166.285ZM95.3436 172.608L94.1599 171.924C94.0242 171.845 93.8007 171.845 93.6651 171.924L92.2551 172.738C92.1168 172.818 92.1168 172.946 92.2551 173.026L93.439 173.709C93.5746 173.789 93.798 173.789 93.9337 173.709L95.3436 172.895C95.482 172.816 95.482 172.685 95.3436 172.608ZM97.6208 171.294L96.437 170.61C96.2987 170.53 96.0779 170.53 95.9422 170.61L94.5323 171.424C94.3966 171.504 94.3966 171.632 94.5323 171.712L95.7188 172.395C95.8544 172.475 96.0779 172.475 96.2136 172.395L97.6235 171.581C97.7565 171.501 97.7565 171.374 97.6208 171.294ZM99.8953 169.98L98.7089 169.296C98.5732 169.216 98.3497 169.216 98.2141 169.296L96.8041 170.11C96.6685 170.19 96.6685 170.318 96.8041 170.397L97.9906 171.081C98.1263 171.161 98.3497 171.161 98.4854 171.081L99.8953 170.267C100.034 170.187 100.034 170.06 99.8953 169.98ZM102.17 168.666L100.986 167.982C100.848 167.902 100.627 167.902 100.491 167.982L99.0813 168.796C98.9456 168.876 98.9456 169.003 99.0813 169.083L100.268 169.767C100.403 169.847 100.627 169.847 100.763 169.767L102.173 168.953C102.308 168.873 102.308 168.745 102.17 168.666ZM116.543 160.368L115.357 159.685C115.221 159.605 114.998 159.605 114.862 159.685L112.72 160.922C112.582 161.001 112.582 161.129 112.72 161.209L113.904 161.893C114.04 161.972 114.263 161.972 114.399 161.893L116.543 160.656C116.679 160.576 116.679 160.448 116.543 160.368ZM105.447 164.423L104.261 163.739C104.122 163.659 103.902 163.659 103.766 163.739L102.356 164.553C102.22 164.633 102.22 164.76 102.356 164.84L103.54 165.524C103.678 165.604 103.899 165.604 104.035 165.524L105.445 164.71C105.586 164.627 105.586 164.5 105.447 164.423ZM107.724 163.108L106.538 162.425C106.402 162.345 106.179 162.345 106.043 162.425L104.633 163.239C104.498 163.318 104.498 163.446 104.633 163.526L105.817 164.21C105.955 164.289 106.176 164.289 106.312 164.21L107.722 163.396C107.86 163.316 107.86 163.188 107.724 163.108ZM109.999 161.794L108.812 161.11C108.677 161.031 108.453 161.031 108.318 161.11L106.908 161.924C106.769 162.004 106.769 162.132 106.908 162.212L108.092 162.896C108.227 162.975 108.451 162.975 108.586 162.896L109.996 162.081C110.137 162.002 110.137 161.874 109.999 161.794ZM112.273 160.48L111.087 159.796C110.951 159.717 110.728 159.717 110.592 159.796L109.182 160.61C109.044 160.69 109.044 160.818 109.182 160.898L110.366 161.581C110.504 161.661 110.725 161.661 110.861 161.581L112.271 160.767C112.412 160.687 112.412 160.56 112.273 160.48ZM114.551 159.166L113.364 158.482C113.228 158.402 113.005 158.402 112.869 158.482L111.459 159.296C111.324 159.376 111.324 159.504 111.459 159.584L112.646 160.267C112.782 160.347 113.005 160.347 113.141 160.267L114.551 159.453C114.686 159.373 114.686 159.246 114.551 159.166ZM110.613 154.266L109.43 153.582C109.291 153.502 109.07 153.502 108.935 153.582L107.525 154.396C107.389 154.476 107.389 154.604 107.525 154.683L108.711 155.367C108.847 155.447 109.07 155.447 109.206 155.367L110.616 154.553C110.752 154.473 110.752 154.345 110.613 154.266ZM112.888 152.952L111.704 152.268C111.569 152.188 111.345 152.188 111.209 152.268L109.799 153.082C109.664 153.162 109.664 153.289 109.799 153.369L110.986 154.053C111.122 154.133 111.345 154.133 111.481 154.053L112.891 153.239C113.026 153.159 113.026 153.031 112.888 152.952ZM115.165 151.64L113.981 150.956C113.843 150.877 113.622 150.877 113.486 150.956L112.077 151.77C111.941 151.85 111.941 151.978 112.077 152.058L113.263 152.741C113.399 152.821 113.622 152.821 113.758 152.741L115.168 151.927C115.301 151.847 115.301 151.717 115.165 151.64ZM117.24 152.837L116.054 152.153C115.918 152.074 115.694 152.074 115.559 152.153L114.149 152.968C114.013 153.047 114.013 153.175 114.149 153.255L115.335 153.938C115.471 154.018 115.695 154.018 115.83 153.938L117.24 153.124C117.376 153.045 117.376 152.917 117.24 152.837ZM119.254 153.944L118.097 153.276C117.982 153.21 117.801 153.21 117.687 153.276L115.697 154.409C115.601 154.465 115.447 154.463 115.351 154.409L113.792 153.508C113.622 153.409 113.345 153.409 113.175 153.508L109.605 155.569C109.435 155.668 109.435 155.827 109.605 155.926L112.718 157.724C112.888 157.822 113.165 157.822 113.335 157.724L119.259 154.303C119.427 154.202 119.427 154.042 119.254 153.944Z" fill="#FBFFFB"/>
<path d="M104.838 158.847L137.415 139.917L127.577 158.011L95 176.944L104.838 158.847Z" fill="#C9C6C1"/>
<path d="M104.375 158.32L136.952 139.387L137.418 139.916L104.841 158.846L104.375 158.32Z" fill="#ECE7E2"/>
<path d="M104.37 158.32L104.836 158.847L94.998 176.944L94.7187 176.782V177.362L71.8672 164.17L71.8725 162.949L94.6894 176.122L104.37 158.32Z" fill="url(#paint2_linear_6530_85720)"/>
<path d="M43.7597 115.09C43.3527 122.262 43.491 135.84 43.9645 136.739C46.0953 140.791 67.4331 153.312 67.6992 153.456C70.1705 154.794 74.4641 148.064 72.8228 146.68C67.1777 142.022 54.9805 131.214 54.9805 131.214C55.1694 123.869 55.736 119.37 56.2761 112.044C56.6964 106.324 55.9915 96.6066 50.2852 97.6893C45.7761 98.5406 44.0709 109.581 43.7597 115.09Z" fill="#2969FF"/>
<path d="M55.0142 131.195C55.1366 124.794 55.8256 118.425 56.2912 112.043C56.2539 112.041 55.7299 116.816 55.7299 116.816C55.5516 118.407 55.4186 120.003 55.2696 121.599C54.9823 124.791 54.7669 127.994 54.6525 131.203C54.6498 131.293 54.6844 131.386 54.7589 131.453C57.7065 134.078 60.7498 136.574 63.7372 139.135L68.2383 142.956L72.8086 146.693C72.8325 146.664 55.0142 131.195 55.0142 131.195Z" fill="#94A2D6"/>
<path d="M72.6125 146.975C71.4473 146.11 66.6084 152.122 67.9411 153.141C68.2684 153.391 68.569 153.578 68.7924 153.732C70.6998 155.054 75.3525 149.116 73.5782 147.765C73.4824 147.69 73.3334 147.568 72.6125 146.975Z" fill="#EFEFEF"/>
<path d="M84.9027 149.016C84.6765 148.829 82.6175 148.412 81.8009 148.218C81.1278 148.058 80.4228 148.196 79.7391 148.303C77.4087 148.659 75.794 148.747 73.4822 148.289C71.6547 147.874 67.9756 153.081 69.4041 153.631C70.5241 154.057 71.6653 155.046 72.1947 155.387C72.897 155.837 73.7669 155.922 74.5996 155.951C75.5998 155.985 76.6 155.959 77.5976 155.868C78.3957 155.797 78.9596 155.802 79.4518 156.432C79.7311 156.791 79.9945 157.111 80.1941 157.507C80.4016 157.922 80.7155 158.247 81.1571 158.414C82.3036 158.853 85.8577 155.821 86.2753 154.967C86.7914 153.908 86.129 150.021 84.9027 149.016Z" fill="#FCBE9F"/>
<path d="M24.219 212.652L22.293 212.442V227.499L22.8862 227.842V238.313L55.1151 256.921V230.707L24.219 212.652Z" fill="url(#paint3_linear_6530_85720)"/>
<path d="M55.1396 230.689L54.5117 231.051V246.108L55.105 245.765V256.922L59.0581 254.639V228.425L55.1396 230.689Z" fill="#3A302E"/>
<path d="M26.8393 209.816L22.293 212.442L54.5218 231.05L59.0682 228.425L26.8393 209.816Z" fill="#473B37"/>
<path d="M29.7526 230.367L25.4883 227.906V224.354L29.7526 226.815V230.367Z" fill="white"/>
<path d="M30.455 229.959L29.75 230.366V226.815L30.455 226.408V229.959Z" fill="#786E6D"/>
<path d="M29.7526 226.816L25.4883 224.355L26.1932 223.948L30.4576 226.409L29.7526 226.816Z" fill="#9C9292"/>
<path d="M49.2917 241.643L45.0273 239.182V235.63L49.2917 238.094V241.643Z" fill="white"/>
<path d="M49.994 241.238L49.2891 241.642V238.094L49.994 237.687V241.238Z" fill="#786E6D"/>
<path d="M49.2917 238.094L45.0273 235.631L45.7323 235.224L49.9966 237.687L49.2917 238.094Z" fill="#9C9292"/>
<path d="M47.694 222.895L45.1694 218.519L36.5928 213.568L34.0496 215.015L32.0917 213.884L30.4636 214.829L30.4609 215.387L34.2492 217.574L35.6378 216.8L42.8577 220.969L44.2383 223.342L48.0106 225.52L49.6386 224.576V224.017L47.694 222.895Z" fill="#302928"/>
<path d="M58.798 172.11C58.3245 172.092 57.8164 171.927 57.2843 171.618C56.8454 171.365 56.2841 170.245 56.0952 168.389C55.8984 166.463 56.026 165.561 56.2761 165.337L58.0425 166.383C58.399 166.777 59.0082 166.806 59.4019 166.455L59.0188 164.268C57.0449 163.079 56.1218 162.967 55.7867 163.089C55.3717 163.238 55.0259 163.547 54.7598 164.002C53.5601 166.079 54.116 171.73 56.3213 173.283C57.859 174.366 57.9334 173.996 58.7182 174.031C59.2715 174.031 59.6972 173.627 59.7185 173.108C59.7424 172.581 59.3301 172.134 58.798 172.11Z" fill="#ECE7E2"/>
<path d="M56.9258 166.473L56.9338 176.768C56.9205 177.601 57.4658 178.434 58.5645 179.069C60.7379 180.322 64.2601 180.32 66.4335 179.064C67.5056 178.444 68.0483 177.633 68.0616 176.821L68.0536 166.526L56.9258 166.473Z" fill="#ECE7E2"/>
<path d="M66.4252 168.768C68.596 167.513 68.5959 165.478 66.4225 164.225C64.2491 162.972 60.7269 162.974 58.5535 164.23C56.3828 165.486 56.3828 167.521 58.5562 168.774C60.7296 170.024 64.2544 170.024 66.4252 168.768Z" fill="#F9F5F2"/>
<path d="M66.0047 168.523C67.944 167.4 67.944 165.586 66.0021 164.466C64.0601 163.346 60.913 163.349 58.9737 164.472C57.0344 165.594 57.0343 167.408 58.9763 168.528C60.9183 169.648 64.0654 169.646 66.0047 168.523Z" fill="#ECE7E2"/>
<path d="M65.9993 165.662C64.0573 164.542 60.9129 164.544 58.971 165.667C58.266 166.074 57.8243 166.574 57.6328 167.101C57.827 167.625 58.2659 168.125 58.9736 168.532C60.9155 169.652 64.0626 169.649 66.0019 168.527C66.7069 168.12 67.1485 167.619 67.3401 167.093C67.1485 166.569 66.7069 166.069 65.9993 165.662Z" fill="#51321D"/>
<path d="M147.823 184.153L126.562 171.876V165.648L147.823 177.925V184.153Z" fill="#C9C9C9"/>
<path d="M163.408 175.157L147.824 184.154V177.926L163.408 168.929V175.157Z" fill="#DDDDDD"/>
<path d="M147.823 177.926L126.562 165.649L142.146 156.652L163.407 168.929L147.823 177.926Z" fill="white"/>
<path opacity="0.5" d="M155.791 174.76L150.497 177.817C150.401 177.873 150.324 177.995 150.324 178.091C150.324 178.187 150.401 178.219 150.497 178.163L155.791 175.106C155.887 175.05 155.964 174.928 155.964 174.832C155.964 174.739 155.887 174.704 155.791 174.76Z" fill="#C9C9C9"/>
<path opacity="0.5" d="M161.111 173.137L155.817 176.194C155.722 176.25 155.645 176.372 155.645 176.468C155.645 176.564 155.722 176.595 155.817 176.542L161.111 173.486C161.207 173.43 161.284 173.307 161.284 173.212C161.287 173.116 161.207 173.081 161.111 173.137Z" fill="#C9C9C9"/>
<path opacity="0.5" d="M157.443 176.885L152.149 179.942C152.054 179.997 151.977 180.12 151.977 180.216C151.977 180.311 152.054 180.343 152.149 180.29L157.443 177.233C157.539 177.178 157.616 177.055 157.616 176.959C157.616 176.864 157.539 176.832 157.443 176.885Z" fill="#C9C9C9"/>
<path opacity="0.5" d="M137.521 173.395L142.814 176.452C142.91 176.507 142.987 176.63 142.987 176.726C142.987 176.821 142.91 176.853 142.814 176.8L137.521 173.743C137.425 173.688 137.348 173.565 137.348 173.469C137.345 173.374 137.425 173.339 137.521 173.395Z" fill="#C9C9C9"/>
<path opacity="0.5" d="M130.079 170.551L135.373 173.608C135.469 173.664 135.546 173.786 135.546 173.882C135.546 173.978 135.469 174.01 135.373 173.956L130.079 170.9C129.983 170.844 129.906 170.722 129.906 170.626C129.906 170.53 129.983 170.495 130.079 170.551Z" fill="#C9C9C9"/>
<path opacity="0.5" d="M140.462 178.175L145.756 181.232C145.852 181.288 145.929 181.41 145.929 181.506C145.929 181.602 145.852 181.633 145.756 181.578L140.462 178.521C140.366 178.465 140.289 178.343 140.289 178.247C140.289 178.154 140.366 178.122 140.462 178.175Z" fill="#C9C9C9"/>
<path d="M86.0604 69.3151C86.8026 68.8868 87.433 69.2033 87.4357 70.0573C87.4384 70.8873 86.8106 71.9327 86.0684 72.361C85.3076 72.8 84.6957 72.4701 84.6931 71.6401C84.6904 70.7888 85.2995 69.754 86.0604 69.3151ZM81.5939 39.9726C81.6151 47.6208 84.842 52.5636 89.8406 54.1358C89.415 54.2315 88.9494 54.4151 88.4866 54.6838C85.7066 56.2905 83.4693 60.076 83.4773 63.1433C83.4853 66.2318 85.7358 67.4289 88.5185 65.8248C91.2798 64.2287 93.5357 60.4325 93.5277 57.344C93.525 56.0884 93.1313 55.1626 92.4982 54.6092C95.7304 54.8566 99.5159 53.8857 103.538 51.5633C115.626 44.5855 125.384 28.0893 125.344 14.7136C125.307 1.314 115.488 -3.87618 103.4 3.10163C91.3117 10.0794 81.5566 26.5756 81.5939 39.9726Z" fill="#EDE8E4"/>
<path d="M116.3 7.06365C113.159 5.23872 108.809 5.4941 104.01 8.26607C94.4678 13.7754 86.7611 27.1272 86.7931 38.0927C86.809 43.5382 88.7297 47.3717 91.8315 49.1726L96.5881 51.934L121.057 9.82496L116.3 7.06365Z" fill="#2969FF"/>
<path d="M108.768 11.0247C112.942 8.61448 116.775 8.10638 119.768 9.21304C123.617 10.6363 126.081 14.7357 126.097 20.9022C126.129 31.8624 118.419 45.2168 108.88 50.7235C99.3374 56.2328 91.5801 51.8089 91.5509 40.8487C91.5216 29.8859 99.2256 16.534 108.768 11.0247Z" fill="#54A5D8"/>
<path d="M108.675 12.9936C112.434 10.8228 115.887 10.3653 118.584 11.3628C122.05 12.6451 124.272 16.3375 124.285 21.8948C124.312 31.7696 117.368 43.7992 108.773 48.7605C100.178 53.7246 93.1895 49.7395 93.1602 39.8646C93.1336 29.9845 100.077 17.9576 108.675 12.9936Z" fill="#FFFBF8"/>
<path opacity="0.4" d="M123.062 22.0112C123.328 22.0325 123.424 22.3757 123.267 22.7694C123.163 23.0381 122.974 23.2642 122.78 23.3786C122.684 23.4318 122.588 23.4611 122.5 23.4531C122.234 23.4265 122.139 23.0886 122.296 22.6896C122.399 22.4209 122.586 22.2002 122.78 22.0884C122.876 22.0326 122.971 22.0033 123.062 22.0112ZM120.327 16.1109C120.327 16.47 120.58 16.6137 120.888 16.4354C121.202 16.2545 121.452 15.8208 121.45 15.4617C121.45 15.1079 121.197 14.9643 120.883 15.1452C120.577 15.3234 120.324 15.757 120.327 16.1109ZM120.652 31.4418C120.386 31.7744 120.292 32.2213 120.449 32.4421C120.556 32.5857 120.745 32.5937 120.939 32.482C121.035 32.4261 121.13 32.3437 121.218 32.2346C121.484 31.9021 121.577 31.4551 121.42 31.2343C121.314 31.0907 121.125 31.0826 120.931 31.1944C120.835 31.2476 120.739 31.3328 120.652 31.4418ZM115.278 40.9894C115.278 41.3432 115.531 41.4869 115.839 41.3086C116.153 41.1277 116.403 40.6941 116.4 40.3403C116.4 39.9812 116.148 39.8375 115.834 40.0184C115.525 40.1967 115.275 40.6303 115.278 40.9894ZM116.041 13.2617C116.307 12.9292 116.401 12.477 116.244 12.2615C116.137 12.1125 115.948 12.1072 115.754 12.2189C115.658 12.2748 115.563 12.3572 115.475 12.4637C115.206 12.7988 115.116 13.2431 115.273 13.4639C115.376 13.6129 115.565 13.6182 115.762 13.5065C115.858 13.4533 115.954 13.3681 116.041 13.2617ZM108.768 14.0997C108.574 14.2114 108.385 14.4376 108.284 14.7036C108.13 15.0973 108.22 15.4431 108.492 15.4617C108.582 15.4697 108.678 15.4405 108.776 15.3873C108.97 15.2755 109.157 15.052 109.26 14.786C109.412 14.387 109.319 14.0492 109.05 14.0252C108.957 14.0173 108.864 14.0438 108.768 14.0997ZM108.859 46.2009C108.665 46.3126 108.476 46.5387 108.375 46.802C108.22 47.2037 108.311 47.5469 108.582 47.5656C108.673 47.5735 108.768 47.5442 108.867 47.491C109.061 47.3793 109.247 47.1559 109.351 46.8899C109.503 46.4908 109.409 46.1529 109.141 46.129C109.048 46.1184 108.952 46.1477 108.859 46.2009ZM101.588 48.3317C101.32 48.6669 101.229 49.1111 101.383 49.3346C101.49 49.4809 101.679 49.4863 101.87 49.3772C101.966 49.3213 102.062 49.2389 102.152 49.1271C102.421 48.7919 102.511 48.3476 102.357 48.1242C102.251 47.9805 102.062 47.9725 101.868 48.0869C101.769 48.1401 101.673 48.2226 101.588 48.3317ZM96.4141 29.3535C96.1454 29.6887 96.0497 30.141 96.2093 30.3565C96.3157 30.5054 96.5045 30.5107 96.6987 30.399C96.7945 30.3432 96.8903 30.2607 96.9781 30.1542C97.2468 29.8191 97.3372 29.3748 97.1802 29.154C97.0765 29.005 96.8877 28.9997 96.6935 29.1114C96.595 29.1646 96.4992 29.2471 96.4141 29.3535ZM96.1747 46.129C96.1747 46.4881 96.4274 46.6318 96.7413 46.4509C97.0499 46.2727 97.3 45.8391 97.2973 45.4799C97.2973 45.1261 97.0446 44.9824 96.736 45.1606C96.4247 45.3415 96.1747 45.7752 96.1747 46.129ZM94.8392 38.2175C94.645 38.3292 94.4589 38.5527 94.3551 38.8187C94.2008 39.2204 94.2965 39.5555 94.5652 39.5795C94.653 39.5875 94.7488 39.5608 94.8419 39.5076C95.0361 39.3959 95.225 39.1671 95.3261 38.9011C95.483 38.5074 95.3899 38.1615 95.1212 38.1429C95.0335 38.1349 94.935 38.1616 94.8392 38.2175ZM102.349 20.6067C102.349 20.2475 102.096 20.1039 101.788 20.2821C101.479 20.4603 101.229 20.8939 101.229 21.2531C101.229 21.6069 101.482 21.7506 101.79 21.5724C102.099 21.3941 102.349 20.9605 102.349 20.6067Z" fill="#564D4C"/>
<path d="M109.575 30.316C109.493 30.2841 109.397 30.3213 109.362 30.4065L102.403 47.3176C102.368 47.4001 102.408 47.4959 102.494 47.5305C102.645 47.5251 102.688 47.4905 102.706 47.4426L109.666 30.5315C109.697 30.4464 109.658 30.3506 109.575 30.316Z" fill="#CE2E2E"/>
<path d="M109.391 30.6944L109.832 32.1204C115.586 27.6299 117.475 25.4166 117.491 24.7941C117.51 24.137 115.334 25.3394 109.391 30.6944Z" fill="#443D3C"/>
<path d="M109.663 29.5796C109.421 29.4333 109.083 29.4519 108.71 29.6674C107.974 30.093 107.375 31.1279 107.375 31.9818C107.375 32.4021 107.521 32.7001 107.758 32.8411L108.522 33.2826L110.426 30.0212L109.663 29.5796Z" fill="#443D3C"/>
<path d="M108.133 32.4206C108.133 33.2719 108.731 33.6178 109.468 33.1921C110.205 32.7665 110.804 31.7317 110.804 30.8804C110.804 30.0291 110.205 29.6833 109.468 30.1089C108.731 30.5345 108.133 31.5693 108.133 32.4206Z" fill="#564D4C"/>
<path d="M109.567 29.9257C109.987 8.57724 107.723 9.83551 108.173 31.011C108.577 30.5827 109.29 30.0587 109.567 29.9257Z" fill="#443D3C"/>
<defs>
<linearGradient id="paint0_linear_6530_85720" x1="85.0141" y1="98.5426" x2="93.9156" y2="102.344" gradientUnits="userSpaceOnUse">
<stop stop-color="#8691C7"/>
<stop offset="1" stop-color="#7580BA"/>
</linearGradient>
<linearGradient id="paint1_linear_6530_85720" x1="54.1977" y1="211.681" x2="69.1688" y2="196.71" gradientUnits="userSpaceOnUse">
<stop stop-color="#B6B2AE"/>
<stop offset="1" stop-color="#BCB8B4"/>
</linearGradient>
<linearGradient id="paint2_linear_6530_85720" x1="80.5739" y1="172.876" x2="99.7494" y2="153.7" gradientUnits="userSpaceOnUse">
<stop stop-color="#B6B2AE"/>
<stop offset="1" stop-color="#BCB8B4"/>
</linearGradient>
<linearGradient id="paint3_linear_6530_85720" x1="38.704" y1="212.442" x2="38.704" y2="256.921" gradientUnits="userSpaceOnUse">
<stop stop-color="#996232"/>
<stop offset="1" stop-color="#332111"/>
</linearGradient>
</defs>
</svg>
